<?xml version="1.0" encoding="UTF-8"?>
<svg id="Layer_1" xmlns="http://www.w3.org/2000/svg" version="1.1" xmlns:xlink="http://www.w3.org/1999/xlink" viewBox="0 0 617.07 175">
  <!-- Generator: Adobe Illustrator 29.3.1, SVG Export Plug-In . SVG Version: 2.1.0 Build 151)  -->
  <defs>
    <style>
      .st0 {
        fill: #0054ce;
      }

      .st1 {
        fill: #fff;
      }

      .st2 {
        fill: url(#linear-gradient);
      }
    </style>
    <linearGradient id="linear-gradient" x1="140.41" y1="28.66" x2="28.89" y2="128.98" gradientUnits="userSpaceOnUse">
      <stop offset="0" stop-color="#0080ff"/>
      <stop offset="1" stop-color="#0054ce"/>
    </linearGradient>
  </defs>
  <g>
    <rect class="st2" y="12.5" width="150" height="150" rx="13.65" ry="13.65"/>
    <path class="st1" d="M108.5,79.5c-1.1,3.83-2.79,7.41-4.97,10.63,1.23,3.01,1.91,6.31,1.91,9.76,0,14.29-11.62,25.91-25.91,25.91h-27.02c-4.38,0-7.94-3.56-7.94-7.94v-60.71c0-4.38,3.56-7.94,7.94-7.94h20.02c11.03,0,20.01,8.98,20.01,20.01s-8.98,20.01-20.01,20.01h-1.5c-4.2,0-7.62-3.42-7.62-7.62s3.42-7.62,7.62-7.62h8.49c1.37,0,2.72.11,4.04.32.72-1.55,1.12-3.27,1.12-5.08,0-1.59-.31-3.11-.87-4.51-1.41-.17-2.84-.26-4.29-.26h-8.49c-9.46,0-17.15,7.69-17.15,17.15s7.69,17.15,17.15,17.15h1.5c16.29,0,29.54-13.25,29.54-29.54s-13.25-29.54-29.54-29.54h-20.02c-9.63,0-17.47,7.84-17.47,17.47v60.71c0,9.63,7.84,17.47,17.47,17.47h27.02c19.54,0,35.44-15.9,35.44-35.44,0-7.58-2.4-14.62-6.47-20.39Z"/>
  </g>
  <g>
    <path class="st0" d="M263.47,88.67c-2.06-1.49-4.37-2.69-6.92-3.6,3.21-1.43,5.8-3.49,7.75-6.2,2.71-3.77,4.07-8.42,4.07-13.94,0-4.97-1.17-9.22-3.52-12.77-2.35-3.54-5.82-6.26-10.42-8.15-4.6-1.89-10.22-2.83-16.84-2.83h-42.65v96.63h44.04c5.06,0,9.69-.6,13.87-1.79,4.19-1.2,7.84-3.04,10.97-5.52,3.13-2.48,5.52-5.54,7.18-9.18,1.66-3.63,2.48-7.89,2.48-12.77,0-4.23-.87-8.03-2.62-11.39-1.75-3.36-4.21-6.19-7.39-8.49ZM217.02,60.79h16.43c4.05,0,7.09.85,9.11,2.55,2.02,1.7,3.04,4.03,3.04,6.97,0,2.02-.44,3.75-1.31,5.18-.88,1.43-2.16,2.53-3.86,3.31-1.7.78-3.75,1.17-6.14,1.17h-17.26v-19.19ZM248.91,113.31c-1.02,1.61-2.42,2.83-4.21,3.66-1.79.83-3.98,1.24-6.56,1.24h-21.12v-20.71h20.43c2.67,0,4.97.39,6.9,1.17,1.93.78,3.43,1.91,4.49,3.38,1.06,1.47,1.59,3.27,1.59,5.38,0,2.3-.51,4.26-1.52,5.87Z"/>
    <path class="st0" d="M327.73,108.28c0,1.84-.32,3.52-.97,5.04-.64,1.52-1.54,2.85-2.69,4-1.15,1.15-2.53,2.05-4.14,2.69-1.61.64-3.38.97-5.31.97-2.58,0-4.79-.57-6.62-1.73-1.84-1.15-3.22-2.78-4.14-4.9-.92-2.12-1.38-4.65-1.38-7.59v-42.24h-22.22v45.28c0,6.17,1.04,11.46,3.11,15.87,2.07,4.42,5.01,7.8,8.83,10.15,3.82,2.35,8.44,3.52,13.87,3.52,4.05,0,7.87-.81,11.46-2.42,3.59-1.61,6.67-3.77,9.25-6.49.62-.66,1.2-1.34,1.74-2.04l.61,9.43h20.84v-73.3h-22.22v43.76Z"/>
    <path class="st0" d="M410.83,71.69c-1.07-1.08-2.26-2.1-3.59-3.04-2.49-1.75-5.25-3.13-8.28-4.14-3.04-1.01-6.21-1.52-9.53-1.52-6.44,0-12.15,1.66-17.12,4.97-4.97,3.31-8.88,7.85-11.73,13.6-2.85,5.75-4.28,12.31-4.28,19.67s1.43,13.92,4.28,19.67c2.85,5.75,6.74,10.26,11.66,13.53,4.92,3.27,10.56,4.9,16.91,4.9,3.4,0,6.65-.48,9.73-1.45,3.08-.97,5.82-2.25,8.21-3.86,1.86-1.25,3.45-2.67,4.79-4.23l.6,8.02h20.57V35.67h-22.23v36.03ZM409.38,111.59c-1.34,2.95-3.24,5.25-5.73,6.9-2.48,1.66-5.43,2.48-8.83,2.48s-6.33-.83-8.77-2.48c-2.44-1.66-4.35-3.96-5.73-6.9-1.38-2.94-2.07-6.4-2.07-10.35s.69-7.54,2.07-10.49c1.38-2.94,3.29-5.25,5.73-6.9,2.44-1.66,5.36-2.48,8.77-2.48s6.35.83,8.83,2.48c2.49,1.66,4.39,3.96,5.73,6.9,1.33,2.95,2,6.44,2,10.49s-.67,7.41-2,10.35Z"/>
    <path class="st0" d="M535.48,87.71c-.09-1.75-.23-3.13-.41-4.14h-45.42v18.36h23.54c-.14,2.07-.66,4.03-1.59,5.87-1.1,2.16-2.58,4.03-4.42,5.59-1.84,1.57-4.03,2.81-6.56,3.73-2.53.92-5.22,1.38-8.07,1.38-4.05,0-7.85-.76-11.39-2.28-3.54-1.52-6.6-3.59-9.18-6.21-2.58-2.62-4.6-5.73-6.07-9.32-1.47-3.59-2.21-7.45-2.21-11.6s.69-7.98,2.07-11.53c1.38-3.54,3.34-6.63,5.87-9.25,2.53-2.62,5.47-4.67,8.84-6.14,3.36-1.47,7.06-2.21,11.11-2.21,3.13,0,6.07.44,8.84,1.31,2.76.88,5.36,2.05,7.8,3.52,2.44,1.47,4.81,3.31,7.11,5.52l14.22-15.05c-2.67-3.13-5.93-5.89-9.8-8.28-3.87-2.39-8.17-4.28-12.91-5.66-4.74-1.38-9.78-2.07-15.12-2.07-7.55,0-14.52,1.24-20.91,3.73-6.4,2.48-11.94,5.98-16.63,10.49-4.69,4.51-8.31,9.78-10.84,15.81-2.53,6.03-3.8,12.63-3.8,19.81s1.19,13.83,3.59,19.95c2.39,6.12,5.84,11.44,10.35,15.94,4.51,4.51,9.89,8.01,16.15,10.49,6.26,2.48,13.25,3.73,20.98,3.73,6.44,0,12.42-1.06,17.95-3.18,5.52-2.12,10.31-5.06,14.36-8.83,4.05-3.77,7.2-8.26,9.46-13.46,2.25-5.2,3.38-10.93,3.38-17.19,0-.83-.02-2.07-.07-3.73-.05-1.66-.12-3.36-.21-5.11Z"/>
    <path class="st0" d="M611.96,81.5c-3.41-5.71-8.07-10.21-14.01-13.53-5.93-3.31-12.72-4.97-20.36-4.97s-14.42,1.66-20.36,4.97c-5.93,3.31-10.63,7.82-14.08,13.53-3.45,5.71-5.18,12.24-5.18,19.6s1.73,13.9,5.18,19.6c3.45,5.71,8.14,10.21,14.08,13.53,5.94,3.31,12.72,4.97,20.36,4.97s14.43-1.66,20.36-4.97c5.94-3.31,10.6-7.82,14.01-13.53,3.4-5.71,5.11-12.24,5.11-19.6s-1.7-13.89-5.11-19.6ZM592.5,110.9c-1.47,2.85-3.5,5.11-6.07,6.76-2.58,1.66-5.52,2.48-8.84,2.48s-6.28-.83-8.9-2.48c-2.62-1.66-4.67-3.91-6.14-6.76-1.47-2.85-2.16-6.12-2.07-9.8-.09-3.68.6-6.97,2.07-9.87,1.47-2.9,3.52-5.18,6.14-6.83,2.62-1.66,5.59-2.48,8.9-2.48s6.26.83,8.84,2.48c2.57,1.66,4.6,3.93,6.07,6.83,1.47,2.9,2.16,6.19,2.07,9.87.09,3.68-.6,6.95-2.07,9.8Z"/>
  </g>
</svg>