<?xml version="1.0" encoding="UTF-8"?>
<svg id="Layer_1" xmlns="http://www.w3.org/2000/svg" version="1.1" xmlns:xlink="http://www.w3.org/1999/xlink" viewBox="0 0 150 150">
  <!-- Generator: Adobe Illustrator 29.3.1, SVG Export Plug-In . SVG Version: 2.1.0 Build 151)  -->
  <defs>
    <style>
      .st0 {
        fill: #fff;
      }

      .st1 {
        fill: url(#linear-gradient);
      }
    </style>
    <linearGradient id="linear-gradient" x1="123.09" y1="31.74" x2="11.57" y2="132.05" gradientUnits="userSpaceOnUse">
      <stop offset="0" stop-color="#0080ff"/>
      <stop offset="1" stop-color="#0054ce"/>
    </linearGradient>
  </defs>
  <rect class="st1" width="150" height="150" rx="13.65" ry="13.65"/>
  <path class="st0" d="M108.5,67c-1.1,3.83-2.79,7.41-4.97,10.63,1.23,3.01,1.91,6.31,1.91,9.76,0,14.29-11.62,25.91-25.91,25.91h-27.02c-4.38,0-7.94-3.56-7.94-7.94v-60.71c0-4.38,3.56-7.94,7.94-7.94h20.02c11.03,0,20.01,8.98,20.01,20.01s-8.98,20.01-20.01,20.01h-1.5c-4.2,0-7.62-3.42-7.62-7.62s3.42-7.62,7.62-7.62h8.49c1.37,0,2.72.11,4.04.32.72-1.55,1.12-3.27,1.12-5.08,0-1.59-.31-3.11-.87-4.51-1.41-.17-2.84-.26-4.29-.26h-8.49c-9.46,0-17.15,7.69-17.15,17.15s7.69,17.15,17.15,17.15h1.5c16.29,0,29.54-13.25,29.54-29.54s-13.25-29.54-29.54-29.54h-20.02c-9.63,0-17.47,7.84-17.47,17.47v60.71c0,9.63,7.84,17.47,17.47,17.47h27.02c19.54,0,35.44-15.9,35.44-35.44,0-7.58-2.4-14.62-6.47-20.39Z"/>
</svg>